<?xml version="1.0" encoding="utf-8"?>
<!-- Generator: Adobe Illustrator 16.0.0, SVG Export Plug-In . SVG Version: 6.00 Build 0)  -->
<!DOCTYPE svg PUBLIC "-//W3C//DTD SVG 1.1//EN" "http://www.w3.org/Graphics/SVG/1.1/DTD/svg11.dtd" [
	<!ENTITY ns_extend "http://ns.adobe.com/Extensibility/1.0/">
	<!ENTITY ns_ai "http://ns.adobe.com/AdobeIllustrator/10.0/">
	<!ENTITY ns_graphs "http://ns.adobe.com/Graphs/1.0/">
	<!ENTITY ns_vars "http://ns.adobe.com/Variables/1.0/">
	<!ENTITY ns_imrep "http://ns.adobe.com/ImageReplacement/1.0/">
	<!ENTITY ns_sfw "http://ns.adobe.com/SaveForWeb/1.0/">
	<!ENTITY ns_custom "http://ns.adobe.com/GenericCustomNamespace/1.0/">
	<!ENTITY ns_adobe_xpath "http://ns.adobe.com/XPath/1.0/">
]>
<svg version="1.1" id="Layer_1" xmlns:x="&ns_extend;" xmlns:i="&ns_ai;" xmlns:graph="&ns_graphs;"
	 xmlns="http://www.w3.org/2000/svg" xmlns:xlink="http://www.w3.org/1999/xlink" x="0px" y="0px" width="1024px" height="1024px"
	 viewBox="0 0 1024 1024" enable-background="new 0 0 1024 1024" xml:space="preserve">
<metadata>
	<sfw  xmlns="&ns_sfw;">
		<slices></slices>
		<sliceSourceBounds  width="957.199" height="957.199" y="43.301" x="27.899" bottomLeftOrigin="true"></sliceSourceBounds>
	</sfw>
</metadata>
<path fill="#62BB46" stroke="#257C05" stroke-width="12" stroke-miterlimit="10" d="M861.448,738.9
	c-28.725,0-54.11,11.54-74.538,28.507L606.793,638.86c11.428-23.536,18.348-49.388,18.348-77.187
	c0-38.195-12.459-73.489-32.998-102.345L802.827,248.53c17.543,10.273,36.816,17.77,58.621,17.77
	c65.304,0,118.15-52.846,118.15-118.15c0-65.304-52.847-118.15-118.15-118.15C796.147,30,743.3,82.846,743.3,148.15
	c0,21.806,7.495,41.079,17.77,58.612L550.384,417.57c-29.073-20.766-64.15-33.12-102.459-33.12
	c-67.61,0-125.77,38.413-155.646,94.264L150.007,431.18c-5.767-26.532-28.271-46.729-56.532-46.729
	c-32.657,0-59.075,26.418-59.075,59.075c0,32.655,26.418,59.073,59.075,59.073c14.878,0,28.158-6.001,38.536-15.124l141.458,47.195
	c-1.389,8.896-2.77,17.771-2.77,27.004c0,97.849,79.377,177.227,177.226,177.227c48.687,0,92.875-19.736,124.964-51.58
	l178.955,127.733c-5.085,13.147-8.544,27.118-8.544,41.995c0,65.182,52.847,118.15,118.148,118.15
	c65.304,0,118.15-52.97,118.15-118.15C979.6,791.868,926.752,738.9,861.448,738.9z"/>
<g>
	<path fill="#FFFFFF" stroke="#4B8E2F" stroke-width="4" stroke-miterlimit="10" d="M463.623,450.994
		c-56.91,30.481-97.979,75.122-123.707,109.713c-9.738,13.105-30.537,3.959-27.33-12.058
		c19.598-97.87,89.022-122.575,142.674-126.36C471.627,421.145,478.091,443.248,463.623,450.994z"/>
	<path fill="#FFFFFF" stroke="#4B8E2F" stroke-width="4" stroke-miterlimit="10" d="M466.355,503.424
		c-31.366,16.8-54,41.402-68.18,60.468c-5.367,7.225-16.831,2.183-15.063-6.646c10.801-53.942,49.064-67.556,78.633-69.645
		C470.765,486.974,474.327,499.154,466.355,503.424z"/>
	<path fill="#FFFFFF" stroke="#4B8E2F" stroke-width="4" stroke-miterlimit="10" d="M467.978,541.32
		c-13.231,7.086-22.78,17.465-28.762,25.508c-2.265,3.048-7.1,0.92-6.354-2.803c4.557-22.754,20.697-28.499,33.17-29.379
		C469.839,534.381,471.342,539.521,467.978,541.32z"/>
</g>
<g>
	<path fill="#FFFFFF" stroke="#4B8E2F" stroke-width="4" stroke-miterlimit="10" d="M857.729,74.096
		c-31.346,16.789-53.968,41.376-68.138,60.429c-5.364,7.219-16.819,2.181-15.054-6.641c10.795-53.906,49.033-67.514,78.584-69.599
		C862.136,57.654,865.697,69.829,857.729,74.096z"/>
	<path fill="#FFFFFF" stroke="#4B8E2F" stroke-width="4" stroke-miterlimit="10" d="M859.233,102.973
		c-17.275,9.253-29.743,22.804-37.554,33.306c-2.955,3.979-9.271,1.201-8.296-3.661c5.948-29.711,27.023-37.209,43.311-38.359
		C861.66,93.913,863.623,100.622,859.233,102.973z"/>
	<path fill="#FFFFFF" stroke="#4B8E2F" stroke-width="4" stroke-miterlimit="10" d="M860.125,123.846
		c-7.286,3.903-12.547,9.62-15.841,14.05c-1.247,1.679-3.909,0.506-3.499-1.544c2.51-12.532,11.398-15.697,18.271-16.182
		C861.152,120.024,861.98,122.855,860.125,123.846z"/>
</g>
<g>
	<path fill="#FFFFFF" stroke="#4B8E2F" stroke-width="4" stroke-miterlimit="10" d="M868.455,786.364
		c-37.482,20.075-64.53,49.476-81.476,72.258c-6.414,8.632-20.112,2.606-18-7.941c12.907-64.458,58.631-80.729,93.966-83.222
		C873.726,766.705,877.984,781.263,868.455,786.364z"/>
	<path fill="#FFFFFF" stroke="#4B8E2F" stroke-width="4" stroke-miterlimit="10" d="M870.254,820.895
		c-20.658,11.064-35.564,27.27-44.903,39.825c-3.535,4.757-11.085,1.438-9.921-4.377c7.113-35.526,32.313-44.493,51.788-45.868
		C873.157,810.061,875.505,818.083,870.254,820.895z"/>
	<path fill="#FFFFFF" stroke="#4B8E2F" stroke-width="4" stroke-miterlimit="10" d="M871.323,845.854
		c-8.714,4.668-15.003,11.504-18.942,16.801c-1.49,2.008-4.675,0.604-4.186-1.847c3.002-14.985,13.632-18.77,21.847-19.35
		C872.548,841.283,873.537,844.668,871.323,845.854z"/>
</g>
<g>
	<path fill="#FFFFFF" stroke="#4B8E2F" stroke-width="4" stroke-miterlimit="10" d="M100.796,407.583
		c-18.437,8.967-31.739,22.099-40.074,32.274c-3.154,3.854-9.892,1.164-8.853-3.548c6.348-28.79,28.837-36.057,46.217-37.17
		C103.388,398.802,105.482,405.304,100.796,407.583z"/>
	<path fill="#FFFFFF" stroke="#4B8E2F" stroke-width="4" stroke-miterlimit="10" d="M101.68,423.005
		c-10.161,4.942-17.493,12.179-22.086,17.788c-1.738,2.125-5.452,0.642-4.879-1.955c3.499-15.868,15.894-19.873,25.472-20.487
		C103.109,418.167,104.263,421.75,101.68,423.005z"/>
	<path fill="#FFFFFF" stroke="#4B8E2F" stroke-width="4" stroke-miterlimit="10" d="M102.206,434.153
		c-4.286,2.084-7.379,5.138-9.317,7.503c-0.733,0.896-2.3,0.271-2.058-0.824c1.476-6.694,6.704-8.384,10.745-8.643
		C102.809,432.112,103.296,433.624,102.206,434.153z"/>
</g>
</svg>
